<svg xmlns="http://www.w3.org/2000/svg" width="24" height="25" viewBox="0 0 24 25" fill="none">
  <path d="M18 3.5C17.2044 3.5 16.4413 3.81607 15.8787 4.37868C15.3161 4.94129 15 5.70435 15 6.5V18.5C15 19.2956 15.3161 20.0587 15.8787 20.6213C16.4413 21.1839 17.2044 21.5 18 21.5C18.7956 21.5 19.5587 21.1839 20.1213 20.6213C20.6839 20.0587 21 19.2956 21 18.5C21 17.7044 20.6839 16.9413 20.1213 16.3787C19.5587 15.8161 18.7956 15.5 18 15.5H6C5.20435 15.5 4.44129 15.8161 3.87868 16.3787C3.31607 16.9413 3 17.7044 3 18.5C3 19.2956 3.31607 20.0587 3.87868 20.6213C4.44129 21.1839 5.20435 21.5 6 21.5C6.79565 21.5 7.55871 21.1839 8.12132 20.6213C8.68393 20.0587 9 19.2956 9 18.5V6.5C9 5.70435 8.68393 4.94129 8.12132 4.37868C7.55871 3.81607 6.79565 3.5 6 3.5C5.20435 3.5 4.44129 3.81607 3.87868 4.37868C3.31607 4.94129 3 5.70435 3 6.5C3 7.29565 3.31607 8.05871 3.87868 8.62132C4.44129 9.18393 5.20435 9.5 6 9.5H18C18.7956 9.5 19.5587 9.18393 20.1213 8.62132C20.6839 8.05871 21 7.29565 21 6.5C21 5.70435 20.6839 4.94129 20.1213 4.37868C19.5587 3.81607 18.7956 3.5 18 3.5Z" stroke="#9700CC" stroke-width="2" stroke-linecap="round" stroke-linejoin="round"/>
</svg>