<svg xmlns="http://www.w3.org/2000/svg" width="28" height="28" viewBox="0 0 28 28" fill="none">
  <path d="M24.5 14.9217C24.3165 16.9076 23.5712 18.8001 22.3513 20.3779C21.1314 21.9557 19.4874 23.1534 17.6117 23.831C15.7359 24.5085 13.706 24.6378 11.7594 24.2038C9.81286 23.7697 8.03017 22.7903 6.61994 21.3801C5.20971 19.9698 4.23027 18.1871 3.79623 16.2406C3.3622 14.294 3.49151 12.2641 4.16904 10.3883C4.84658 8.51259 6.04431 6.86859 7.62209 5.64871C9.19987 4.42883 11.0924 3.68352 13.0783 3.5C11.9157 5.07298 11.3562 7.01102 11.5016 8.96165C11.6471 10.9123 12.4878 12.7459 13.871 14.129C15.2541 15.5122 17.0877 16.3529 19.0384 16.4984C20.989 16.6438 22.927 16.0844 24.5 14.9217Z" stroke="white" stroke-width="2" stroke-linecap="round" stroke-linejoin="round"/>
</svg>